<svg width="15" height="11" viewBox="0 0 15 11" fill="none" xmlns="http://www.w3.org/2000/svg">
<path d="M7.5 0.8125C4.375 0.8125 1.70625 2.75625 0.625 5.5C1.70625 8.24375 4.375 10.1875 7.5 10.1875C10.625 10.1875 13.2937 8.24375 14.375 5.5C13.2937 2.75625 10.625 0.8125 7.5 0.8125ZM7.5 8.625C5.775 8.625 4.375 7.225 4.375 5.5C4.375 3.775 5.775 2.375 7.5 2.375C9.225 2.375 10.625 3.775 10.625 5.5C10.625 7.225 9.225 8.625 7.5 8.625ZM7.5 3.625C6.4625 3.625 5.625 4.4625 5.625 5.5C5.625 6.5375 6.4625 7.375 7.5 7.375C8.5375 7.375 9.375 6.5375 9.375 5.5C9.375 4.4625 8.5375 3.625 7.5 3.625Z" fill="#B42B2B"/>
</svg>
